<?xml version="1.0" encoding="UTF-8" standalone="no"?>
<!DOCTYPE svg PUBLIC "-//W3C//DTD SVG 1.1//EN" "http://www.w3.org/Graphics/SVG/1.1/DTD/svg11.dtd">
<svg width="100%" height="100%" viewBox="0 0 16 16" version="1.1" xmlns="http://www.w3.org/2000/svg" xmlns:xlink="http://www.w3.org/1999/xlink" xml:space="preserve" xmlns:serif="http://www.serif.com/" style="fill-rule:evenodd;clip-rule:evenodd;stroke-linejoin:round;stroke-miterlimit:2;">
    <g transform="matrix(1,0,0,1,-0.302701,0)">
        <path d="M0.855,11.268C0.855,10.415 1.085,9.747 1.543,9.264C2.001,8.781 2.593,8.539 3.318,8.539C3.793,8.539 4.221,8.653 4.602,8.88C4.983,9.106 5.273,9.423 5.473,9.828C5.673,10.234 5.773,10.694 5.773,11.209C5.773,11.73 5.668,12.197 5.458,12.608C5.247,13.02 4.949,13.332 4.563,13.543C4.177,13.755 3.761,13.861 3.314,13.861C2.83,13.861 2.398,13.744 2.016,13.51C1.635,13.276 1.346,12.957 1.15,12.552C0.954,12.148 0.855,11.72 0.855,11.268ZM1.557,11.279C1.557,11.899 1.724,12.387 2.057,12.743C2.39,13.1 2.808,13.278 3.311,13.278C3.823,13.278 4.245,13.098 4.575,12.738C4.906,12.378 5.072,11.867 5.072,11.205C5.072,10.787 5.001,10.421 4.86,10.109C4.718,9.797 4.511,9.555 4.239,9.383C3.966,9.211 3.66,9.125 3.321,9.125C2.84,9.125 2.425,9.291 2.078,9.621C1.731,9.952 1.557,10.505 1.557,11.279Z" style="fill:white;fill-rule:nonzero;"/>
        <path d="M6.419,12.121L7.061,12.065C7.091,12.322 7.162,12.533 7.273,12.698C7.384,12.863 7.556,12.996 7.79,13.098C8.024,13.199 8.287,13.25 8.58,13.25C8.839,13.25 9.068,13.212 9.267,13.135C9.466,13.057 9.614,12.952 9.711,12.817C9.808,12.683 9.856,12.536 9.856,12.377C9.856,12.216 9.81,12.075 9.716,11.954C9.623,11.834 9.468,11.733 9.253,11.651C9.115,11.597 8.81,11.513 8.338,11.4C7.865,11.287 7.534,11.18 7.345,11.079C7.099,10.95 6.916,10.791 6.796,10.6C6.675,10.41 6.615,10.196 6.615,9.96C6.615,9.7 6.689,9.458 6.836,9.232C6.984,9.006 7.199,8.835 7.482,8.718C7.765,8.601 8.079,8.543 8.425,8.543C8.806,8.543 9.143,8.604 9.434,8.727C9.725,8.85 9.949,9.03 10.105,9.269C10.262,9.507 10.346,9.778 10.358,10.079L9.706,10.128C9.67,9.803 9.552,9.558 9.35,9.392C9.147,9.226 8.848,9.143 8.453,9.143C8.042,9.143 7.742,9.218 7.554,9.369C7.365,9.52 7.271,9.702 7.271,9.914C7.271,10.099 7.338,10.251 7.471,10.37C7.602,10.49 7.944,10.612 8.497,10.737C9.05,10.862 9.43,10.971 9.635,11.065C9.935,11.203 10.156,11.378 10.298,11.589C10.441,11.801 10.512,12.045 10.512,12.321C10.512,12.594 10.434,12.852 10.277,13.094C10.121,13.336 9.896,13.525 9.602,13.659C9.309,13.793 8.978,13.861 8.611,13.861C8.146,13.861 7.756,13.793 7.441,13.657C7.127,13.522 6.88,13.318 6.701,13.045C6.522,12.773 6.428,12.465 6.419,12.121Z" style="fill:white;fill-rule:nonzero;"/>
        <path d="M15.111,11.97L15.792,12.142C15.649,12.701 15.392,13.127 15.022,13.42C14.651,13.714 14.198,13.861 13.662,13.861C13.108,13.861 12.657,13.748 12.31,13.522C11.963,13.296 11.699,12.97 11.517,12.542C11.336,12.114 11.245,11.654 11.245,11.163C11.245,10.628 11.348,10.161 11.552,9.762C11.757,9.363 12.048,9.06 12.426,8.853C12.804,8.646 13.219,8.543 13.673,8.543C14.187,8.543 14.62,8.674 14.971,8.936C15.322,9.198 15.566,9.566 15.704,10.041L15.034,10.199C14.915,9.824 14.742,9.552 14.515,9.381C14.288,9.21 14.003,9.125 13.659,9.125C13.264,9.125 12.933,9.22 12.668,9.409C12.402,9.599 12.216,9.853 12.108,10.172C12.001,10.491 11.947,10.821 11.947,11.16C11.947,11.597 12.011,11.979 12.138,12.305C12.266,12.631 12.464,12.875 12.733,13.036C13.002,13.198 13.293,13.278 13.606,13.278C13.987,13.278 14.31,13.168 14.574,12.949C14.839,12.729 15.018,12.403 15.111,11.97Z" style="fill:white;fill-rule:nonzero;"/>
    </g>
    <g id="Mail" transform="matrix(0.233618,8.63869e-33,2.87956e-33,0.233618,-127.336,-88.3553)">
        <path d="M559.3,383.5L559.3,409.5L599.3,409.5L599.3,383.5L559.3,383.5ZM582.7,399.4C581.8,400.3 580.6,400.8 579.3,400.8C578,400.8 576.8,400.3 575.9,399.4L562,385.5L596.5,385.5L582.7,399.4ZM571.6,396.5L561.3,406.8L561.3,386.2L571.6,396.5ZM572.3,397.2L575.2,400.1C576.3,401.2 577.8,401.8 579.3,401.8C580.9,401.8 582.3,401.2 583.4,400.1L586.3,397.2L596.6,407.5L562,407.5L572.3,397.2ZM587,396.5L597.3,386.2L597.3,406.9L587,396.5Z" style="fill:white;fill-rule:nonzero;"/>
    </g>
</svg>
