<?xml version="1.0" encoding="UTF-8" standalone="no"?>
<!DOCTYPE svg PUBLIC "-//W3C//DTD SVG 1.1//EN" "http://www.w3.org/Graphics/SVG/1.1/DTD/svg11.dtd">
<svg width="100%" height="100%" viewBox="0 0 16 16" version="1.1" xmlns="http://www.w3.org/2000/svg" xmlns:xlink="http://www.w3.org/1999/xlink" xml:space="preserve" xmlns:serif="http://www.serif.com/" style="fill-rule:evenodd;clip-rule:evenodd;stroke-linejoin:round;stroke-miterlimit:2;">
    <g transform="matrix(1,0,0,1,-0.302701,0)">
        <text x="0.508px" y="13.773px" style="font-family:'ArialMT', 'Arial', sans-serif;font-size:7.184px;">OSC</text>
    </g>
    <g id="plug-svgrepo-com.svg" transform="matrix(0.00912832,0.00906351,-0.00906351,0.00912832,7.97644,4.37741)">
        <g transform="matrix(1,0,0,1,-400,-400)">
            <g>
                <path d="M316.719,405.781L267.5,455C258.75,463.75 254.063,475.313 254.063,487.656C254.063,500 258.906,511.562 267.5,520.312L277.031,529.844L271.25,535.625C253.906,552.969 225.625,552.969 208.125,535.625L159.062,486.562C126.719,454.219 74.219,454.219 41.875,486.562C9.531,518.906 9.531,571.406 41.875,603.75L90.937,652.969C99.375,661.406 104.062,672.656 104.062,684.531C104.062,696.406 99.375,707.656 90.937,716.094C83.437,723.594 83.437,735.625 90.937,743.125C94.687,746.875 99.531,748.75 104.531,748.75C109.375,748.75 114.375,746.875 118.125,743.125C133.75,727.5 142.344,706.719 142.344,684.531C142.344,662.344 133.75,641.563 118.125,625.938L69.062,576.719C51.719,559.375 51.719,531.094 69.062,513.594C86.406,496.094 114.687,496.25 132.187,513.594L181.25,562.5C213.594,594.844 266.094,594.844 298.438,562.5L304.219,556.719L313.75,566.25C322.813,575.313 334.531,579.688 346.406,579.688C358.281,579.688 370,575.156 379.063,566.25L428.281,517.031C446.094,522.813 464.531,525.938 482.969,525.938C527.813,525.938 572.656,508.906 606.719,474.844L692.813,388.75L708.281,404.219C712.031,407.969 716.875,409.844 721.875,409.844C726.875,409.844 731.719,407.969 735.469,404.219C742.969,396.719 742.969,384.688 735.469,377.188L672.188,313.906L776.875,209.219C784.375,201.719 784.375,189.688 776.875,182.188C769.375,174.688 757.344,174.688 749.844,182.188L645.156,286.875L547.188,189.063L651.875,84.375C659.375,76.875 659.375,64.844 651.875,57.344C644.375,49.844 632.344,49.844 624.844,57.344L520.156,162.031L456.875,98.75C449.375,91.25 437.344,91.25 429.844,98.75C422.344,106.25 422.344,118.281 429.844,125.781L445.312,141.25L359.219,227.344C310.938,275.625 296.875,345 316.719,405.781ZM386.094,447.813C332.813,394.531 332.813,307.813 386.094,254.531L472.188,168.438L665.625,361.563L579.531,447.656C526.094,501.094 439.375,501.094 386.094,447.813ZM333.906,442.812C340.938,454.219 349.219,465 359.063,474.844C368.906,484.688 379.687,492.969 391.094,500L351.719,539.375C348.75,542.5 343.75,542.5 340.625,539.375L294.531,493.281C292.5,491.25 292.188,488.906 292.188,487.813C292.188,486.562 292.5,484.219 294.531,482.344L333.906,442.812Z" style="fill-rule:nonzero;"/>
            </g>
        </g>
    </g>
</svg>
